<!DOCTYPE svg PUBLIC "-//W3C//DTD SVG 20010904//EN" "http://www.w3.org/TR/2001/REC-SVG-20010904/DTD/svg10.dtd">
<svg version="1.0" xmlns="http://www.w3.org/2000/svg" width="1500px" height="1000px" viewBox="0 0 10000 10000" preserveAspectRatio="xMidYMid meet">
<g id="layer101" fill="#2ecc71" stroke="none">
   <path d="M2265 5686 c-61 -19 -105 -45 -105 -60 0 -8 19 -52 43 -98 l42 -84 40 18 c78 35 176 18 204 -35 13 -24 1 -54 -164 -444 -97 -230 -179 -424 -182 -430 -4 -10 27 -13 135 -13 102 0 143 3 149 13 4 6 52 120 105 252 56 139 102 241 111 243 10 2 43 -69 112 -240 54 -134 103 -249 108 -255 7 -9 47 -13 138 -13 l128 0 -48 118 c-193 467 -327 785 -353 834 -46 87 -91 133 -166 170 -59 29 -77 33 -162 35 -57 2 -111 -3 -135 -11z"/>
   <path d="M3424 5389 c-158 -37 -251 -189 -199 -324 46 -122 179 -175 436 -175 58 0 99 -4 99 -10 0 -5 -7 -28 -16 -50 -26 -64 -73 -83 -193 -78 -77 3 -107 9 -154 31 l-58 26 -42 -87 c-23 -48 -43 -90 -45 -93 -4 -9 107 -57 179 -76 100 -27 285 -24 369 5 95 33 158 84 198 162 42 83 54 190 50 465 l-3 200 -132 3 -133 3 0 -51 c0 -56 -17 -67 -43 -26 -9 13 -42 37 -72 52 -63 30 -168 41 -241 23z m261 -183 c45 -19 75 -69 75 -124 l0 -44 -114 4 c-139 4 -156 14 -156 89 0 39 4 51 26 68 32 25 117 29 169 7z"/>
   <path d="M5731 5384 c-69 -18 -112 -45 -156 -97 -55 -64 -65 -114 -65 -318 l0 -178 -62 -3 -63 -3 -3 -102 -3 -102 63 -3 63 -3 3 -113 3 -113 142 3 142 3 0 110 1 110 97 3 97 3 0 104 0 105 -97 0 -98 0 3 172 c3 170 3 173 28 196 27 24 83 30 127 13 24 -9 26 -7 56 79 17 49 31 93 31 98 0 22 -117 52 -200 51 -30 0 -79 -7 -109 -15z"/>
   <path d="M7304 5386 c-130 -30 -254 -116 -307 -214 -91 -167 -67 -359 63 -496 218 -231 618 -177 751 101 27 56 33 82 37 160 l5 93 -312 0 c-296 0 -311 1 -311 19 0 32 44 85 90 109 35 17 61 22 126 22 71 0 89 -4 140 -30 l59 -30 67 72 c37 40 67 76 68 81 0 14 -123 87 -174 103 -72 22 -227 27 -302 10z m273 -533 c-17 -102 -160 -157 -267 -100 -45 23 -80 74 -80 114 l0 23 176 0 177 0 -6 -37z"/>
   <path d="M930 5119 l0 -271 82 103 c44 57 110 140 145 184 l63 80 -2 85 -3 85 -142 3 -143 3 0 -272z"/>
   <path d="M1329 4914 l-394 -476 -3 -69 -3 -69 123 1 123 0 261 317 c144 174 321 392 393 485 l131 167 0 60 0 60 -118 0 -119 0 -394 -476z"/>
   <path d="M4315 5378 c-3 -7 -4 -198 -3 -423 l3 -410 135 0 135 0 3 38 c4 44 16 46 63 12 19 -14 65 -35 103 -47 152 -46 320 8 397 130 50 79 60 155 57 447 l-3 260 -140 0 -140 0 -5 -265 c-4 -236 -7 -269 -23 -294 -46 -69 -191 -75 -248 -9 -42 47 -44 62 -49 318 l-5 250 -138 3 c-104 2 -139 -1 -142 -10z"/>
   <path d="M6245 5378 c-3 -7 -4 -198 -3 -423 l3 -410 135 0 135 0 3 43 c3 46 18 54 46 23 25 -28 123 -69 184 -77 l52 -7 0 131 0 131 -34 -6 c-45 -7 -131 12 -167 38 -59 42 -64 61 -69 324 l-5 240 -138 3 c-104 2 -139 -1 -142 -10z"/>
   <path d="M8075 5378 c-3 -7 -4 -198 -3 -423 l3 -410 133 -3 132 -3 0 46 c0 54 10 56 65 14 22 -16 71 -39 109 -51 165 -50 345 18 410 156 39 83 47 159 44 431 l-3 250 -140 0 -140 0 -5 -260 c-4 -226 -7 -264 -23 -293 -53 -97 -235 -76 -283 33 -5 11 -11 133 -14 270 l-5 250 -138 3 c-104 2 -139 -1 -142 -10z"/>
   <path d="M1811 4653 l-140 -168 -1 -92 0 -93 145 0 145 0 0 260 c0 143 -2 260 -5 260 -2 0 -67 -75 -144 -167z"/>
</g>

</svg>